<svg width="24" height="25" viewBox="0 0 24 25" fill="none" xmlns="http://www.w3.org/2000/svg">
<path d="M14.5299 9.53779L9.46992 14.5978C8.81992 13.9478 8.41992 13.0578 8.41992 12.0678C8.41992 10.0878 10.0199 8.48779 11.9999 8.48779C12.9899 8.48779 13.8799 8.88779 14.5299 9.53779Z" stroke="#16151C" stroke-width="1.5" stroke-linecap="round" stroke-linejoin="round"/>
<path d="M17.8201 5.83785C16.0701 4.51785 14.0701 3.79785 12.0001 3.79785C8.47009 3.79785 5.18009 5.87785 2.89009 9.47785C1.99009 10.8879 1.99009 13.2579 2.89009 14.6679C3.68009 15.9079 4.60009 16.9779 5.60009 17.8379" stroke="#16151C" stroke-width="1.5" stroke-linecap="round" stroke-linejoin="round"/>
<path d="M8.41992 19.598C9.55992 20.078 10.7699 20.338 11.9999 20.338C15.5299 20.338 18.8199 18.258 21.1099 14.658C22.0099 13.248 22.0099 10.878 21.1099 9.46805C20.7799 8.94805 20.4199 8.45805 20.0499 7.99805" stroke="#16151C" stroke-width="1.5" stroke-linecap="round" stroke-linejoin="round"/>
<path d="M15.5099 12.7681C15.2499 14.1781 14.0999 15.3281 12.6899 15.5881" stroke="#16151C" stroke-width="1.5" stroke-linecap="round" stroke-linejoin="round"/>
<path d="M9.47 14.5977L2 22.0677" stroke="#16151C" stroke-width="1.5" stroke-linecap="round" stroke-linejoin="round"/>
<path d="M22 2.06787L14.53 9.53787" stroke="#16151C" stroke-width="1.5" stroke-linecap="round" stroke-linejoin="round"/>
</svg>
